<svg width="20" height="20" viewBox="0 0 20 20" fill="none" xmlns="http://www.w3.org/2000/svg">
<path fill-rule="evenodd" clip-rule="evenodd" d="M15.8334 1.66675C16.1023 2.91932 17.0808 3.89777 18.3334 4.16675C17.0808 4.43572 16.1023 5.41418 15.8334 6.66675C15.5644 5.41418 14.5859 4.43572 13.3334 4.16675C14.5859 3.89777 15.5644 2.91932 15.8334 1.66675ZM7.56006 1.83342C8.31964 5.37068 11.0828 8.13383 14.6201 8.89342C11.0828 9.653 8.31964 12.4162 7.56006 15.9534C6.80048 12.4162 4.03733 9.653 0.500061 8.89342C4.03733 8.13383 6.80048 5.37068 7.56006 1.83342ZM18.3334 15.0001C16.6633 14.6414 15.3587 13.3368 15 11.6667C14.6414 13.3368 13.3368 14.6414 11.6667 15.0001C13.3368 15.3587 14.6414 16.6633 15 18.3334C15.3587 16.6633 16.6633 15.3587 18.3334 15.0001Z" fill="#519B8E"/>
</svg>
