<svg width="187" height="48" viewBox="0 0 187 48" fill="none" xmlns="http://www.w3.org/2000/svg">
<path fill-rule="evenodd" clip-rule="evenodd" d="M32.6753 21.2316C26.263 21.2316 20.9821 16.3868 20.2935 10.158H29.2027C29.7528 11.5368 31.1002 12.5111 32.6753 12.5111C34.2503 12.5111 35.5979 11.5368 36.1479 10.158H45.057C44.3685 16.3868 39.0876 21.2316 32.6753 21.2316ZM67.5329 33.8533C68.5046 34.8928 69.9055 35.4124 71.7358 35.4124C73.5661 35.4124 74.967 34.8928 75.9387 33.8533C76.9103 32.8139 77.3961 31.3452 77.3961 29.447V16.974C77.3961 15.076 76.9103 13.6072 75.9387 12.5678C74.967 11.5284 73.5661 11.0087 71.7358 11.0087C69.9055 11.0087 68.5046 11.5284 67.5329 12.5678C66.5613 13.6072 66.0755 15.076 66.0755 16.974V29.447C66.0755 31.3452 66.5613 32.8139 67.5329 33.8533ZM73.6678 29.6843C73.6678 31.2434 73.0238 32.023 71.7358 32.023C70.4478 32.023 69.8038 31.2434 69.8038 29.6843V16.7368C69.8038 15.1776 70.4478 14.3981 71.7358 14.3981C73.0238 14.3981 73.6678 15.1776 73.6678 16.7368V29.6843ZM58.5563 11.3477H54.8279V35.0736H64.6911V31.6841H58.5563V11.3477ZM85.205 35.4124C83.3973 35.4124 82.019 34.9041 81.0699 33.8872C80.1209 32.8478 79.6464 31.3677 79.6464 29.447V16.974C79.6464 15.0534 80.1209 13.5846 81.0699 12.5678C82.019 11.5284 83.3973 11.0087 85.205 11.0087C87.0127 11.0087 88.391 11.5284 89.3401 12.5678C90.2892 13.5846 90.7637 15.0534 90.7637 16.974V19.0077H87.2387V16.7368C87.2387 15.1776 86.5947 14.3981 85.3067 14.3981C84.0187 14.3981 83.3747 15.1776 83.3747 16.7368V29.7183C83.3747 31.2548 84.0187 32.023 85.3067 32.023C86.5947 32.023 87.2387 31.2548 87.2387 29.7183V25.0747H85.3745V21.6853H90.7637V29.447C90.7637 31.3677 90.2892 32.8478 89.3401 33.8872C88.391 34.9041 87.0127 35.4124 85.205 35.4124ZM94.3438 33.8533C95.3154 34.8928 96.7163 35.4124 98.5466 35.4124C100.377 35.4124 101.778 34.8928 102.749 33.8533C103.721 32.8139 104.207 31.3452 104.207 29.447V16.974C104.207 15.076 103.721 13.6072 102.749 12.5678C101.778 11.5284 100.377 11.0087 98.5466 11.0087C96.7163 11.0087 95.3154 11.5284 94.3438 12.5678C93.3721 13.6072 92.8863 15.076 92.8863 16.974V29.447C92.8863 31.3452 93.3721 32.8139 94.3438 33.8533ZM100.479 29.6843C100.479 31.2434 99.8345 32.023 98.5466 32.023C97.2586 32.023 96.6146 31.2434 96.6146 29.6843V16.7368C96.6146 15.1776 97.2586 14.3981 98.5466 14.3981C99.8345 14.3981 100.479 15.1776 100.479 16.7368V29.6843ZM106.735 11.3477H110.464V35.0736H106.735V11.3477ZM118.747 11.3477H113.256V35.0736H116.985V25.4137H118.747C120.599 25.4137 121.989 24.9166 122.916 23.9224C123.843 22.9281 124.306 21.4707 124.306 19.55V17.2113C124.306 15.2907 123.843 13.8332 122.916 12.839C121.989 11.8448 120.599 11.3477 118.747 11.3477ZM120.103 21.5159C119.809 21.8548 119.357 22.0243 118.747 22.0243H116.985V14.7371H118.747C119.357 14.7371 119.809 14.9065 120.103 15.2455C120.419 15.5844 120.577 16.1606 120.577 16.9741V19.7873C120.577 20.6008 120.419 21.1769 120.103 21.5159ZM131.309 35.4124C129.502 35.4124 128.135 34.9041 127.208 33.8872C126.282 32.8478 125.819 31.3677 125.819 29.447V28.0913H129.344V29.7183C129.344 31.2548 129.988 32.023 131.276 32.023C131.909 32.023 132.383 31.8423 132.699 31.4808C133.038 31.0966 133.208 30.4865 133.208 29.6504C133.208 28.6562 132.982 27.7863 132.53 27.0406C132.078 26.2723 131.242 25.3572 130.021 24.2951C128.485 22.9394 127.412 21.7192 126.801 20.6346C126.192 19.5274 125.887 18.2846 125.887 16.9063C125.887 15.0308 126.361 13.5846 127.31 12.5678C128.259 11.5284 129.638 11.0087 131.446 11.0087C133.23 11.0087 134.575 11.5284 135.479 12.5678C136.405 13.5846 136.868 15.0534 136.868 16.974V17.957H133.343V16.7368C133.343 15.9233 133.185 15.3358 132.869 14.9743C132.553 14.5901 132.09 14.3981 131.479 14.3981C130.236 14.3981 129.615 15.155 129.615 16.669C129.615 17.5276 129.841 18.3298 130.293 19.0755C130.767 19.8211 131.615 20.7249 132.835 21.787C134.394 23.1427 135.467 24.3743 136.055 25.4815C136.642 26.5887 136.936 27.8879 136.936 29.3793C136.936 31.3226 136.45 32.8139 135.479 33.8533C134.529 34.8928 133.14 35.4124 131.309 35.4124ZM140.362 33.8872C141.311 34.9041 142.689 35.4125 144.497 35.4125C146.304 35.4125 147.683 34.9041 148.632 33.8872C149.581 32.8479 150.055 31.3678 150.055 29.4471V11.3477H146.463V29.7183C146.463 30.5317 146.293 31.1192 145.954 31.4808C145.638 31.8423 145.175 32.0231 144.565 32.0231C143.955 32.0231 143.48 31.8423 143.141 31.4808C142.825 31.1192 142.667 30.5317 142.667 29.7183V11.3477H138.938V29.4471C138.938 31.3678 139.413 32.8479 140.362 33.8872ZM152.711 11.3477H158.033L160.405 28.3286H160.472L162.846 11.3477H168.167V35.0736H164.641V17.1097H164.574L161.862 35.0736H158.744L156.032 17.1097H155.965V35.0736H152.711V11.3477ZM27.1385 26.7684C27.1385 31.3551 23.4202 35.0735 18.8333 35.0735V29.2599C20.2094 29.2599 21.3249 28.1444 21.3249 26.7684C21.3249 25.3923 20.2094 24.2767 18.8333 24.2767V18.4631C23.4202 18.4631 27.1385 22.1815 27.1385 26.7684ZM46.5173 21.2316C45.0981 20.782 43.5867 20.5394 42.0186 20.5394C33.8006 20.5394 27.1385 27.2016 27.1385 35.4196C27.1385 36.2444 27.2057 37.0536 27.3347 37.8419H36.5802C36.2502 37.102 36.0667 36.2822 36.0667 35.4196C36.0667 32.1324 38.7314 29.4675 42.0186 29.4675C43.8153 29.4675 45.426 30.2635 46.5173 31.5221V21.2316Z" fill="#626981"/>
</svg>
