<svg width="187" height="48" viewBox="0 0 187 48" fill="none" xmlns="http://www.w3.org/2000/svg">
<path d="M149.883 6.14894C149.883 4.96594 150.842 4.00594 152.025 4.00594H153.454C154.023 4.00594 154.568 4.23172 154.97 4.63361C155.372 5.0355 155.597 5.58058 155.597 6.14894C155.597 6.7173 155.372 7.26238 154.97 7.66427C154.568 8.06616 154.023 8.29194 153.454 8.29194H152.025C151.744 8.29194 151.465 8.2365 151.205 8.12879C150.945 8.02108 150.709 7.86322 150.51 7.66421C150.311 7.4652 150.154 7.22895 150.046 6.96895C149.938 6.70896 149.883 6.43031 149.883 6.14894ZM89.8923 18.2899C89.8923 26.1779 83.4983 32.5729 75.6093 32.5729C67.7213 32.5729 61.3263 26.1779 61.3263 18.2899C61.3263 10.3999 67.7213 4.00694 75.6093 4.00694C83.4983 4.00694 89.8923 10.3999 89.8923 18.2899ZM58.5403 18.2189C59.3303 18.2189 59.9763 18.8589 59.8973 19.6449C59.6273 22.3348 58.5995 24.8927 56.9334 27.0216C55.2673 29.1504 53.0312 30.7627 50.485 31.6711C47.9389 32.5794 45.1872 32.7466 42.5498 32.153C39.9124 31.5595 37.4977 30.2297 35.5861 28.3181C33.6746 26.4066 32.3447 23.9918 31.7512 21.3544C31.1577 18.7171 31.3248 15.9654 32.2332 13.4192C33.1415 10.8731 34.7538 8.63699 36.8827 6.97085C39.0115 5.3047 41.5695 4.27691 44.2593 4.00694C45.0443 3.92694 45.6853 4.57494 45.6853 5.36294V16.7899C45.6853 17.5799 46.3253 18.2189 47.1143 18.2189H58.5403ZM109.889 35.4299C111.026 35.4299 112.116 35.8814 112.919 36.685C113.723 37.4886 114.174 38.5785 114.174 39.7149C114.174 40.8514 113.723 41.9413 112.919 42.7449C112.116 43.5485 111.026 43.9999 109.889 43.9999H102.748C101.612 43.9999 100.522 43.5485 99.7184 42.7449C98.9148 41.9413 98.4633 40.8514 98.4633 39.7149C98.4633 38.5785 98.9148 37.4886 99.7184 36.685C100.522 35.8814 101.612 35.4299 102.748 35.4299H109.889ZM105.604 32.5729C113.493 32.5729 119.888 26.1779 119.888 18.2899C119.892 15.8669 119.276 13.4832 118.099 11.3649L120.459 9.00494C120.731 8.73297 120.947 8.41012 121.094 8.05483C121.241 7.69954 121.317 7.31876 121.316 6.93423C121.316 6.5497 121.241 6.16896 121.093 5.81374C120.946 5.45852 120.73 5.13577 120.458 4.86394C120.186 4.5921 119.863 4.3765 119.508 4.22943C119.153 4.08236 118.772 4.00672 118.388 4.00681C118.003 4.0069 117.622 4.08273 117.267 4.22997C116.912 4.37721 116.589 4.59297 116.317 4.86494L114.257 6.92494C111.772 5.02684 108.73 4.00091 105.603 4.00594C97.7163 4.00694 91.3223 10.3999 91.3223 18.2899C91.3223 26.1779 97.7163 32.5729 105.604 32.5729ZM149.883 18.2899C149.883 26.1779 143.488 32.5729 135.599 32.5729C127.711 32.5729 121.316 26.1779 121.316 18.2899C121.316 10.3999 127.711 4.00694 135.599 4.00694C143.488 4.00694 149.883 10.4009 149.883 18.2899Z" fill="#626981"/>
</svg>
