<svg width="187" height="48" viewBox="0 0 187 48" fill="none" xmlns="http://www.w3.org/2000/svg">
<path fill-rule="evenodd" clip-rule="evenodd" d="M20.2589 24.3047C20.0621 24.8554 19.746 25.3558 19.3332 25.7704H19.3354C18.8604 26.2465 18.2727 26.5952 17.6268 26.7842C16.981 26.9731 16.2977 26.9963 15.6405 26.8515C14.9833 26.7066 14.3733 26.3985 13.8671 25.9556C13.3609 25.5128 12.9748 24.9495 12.7447 24.318C12.5146 23.6866 12.4478 23.0073 12.5506 22.3432C12.6534 21.6791 12.9224 21.0516 13.3328 20.5191C13.7431 19.9864 14.2815 19.5658 14.898 19.2962C15.5144 19.0266 16.1891 18.9166 16.8595 18.9766L16.8399 18.9571C17.526 19.0149 18.2164 18.9225 18.863 18.6864C19.5096 18.4503 20.0969 18.0762 20.5837 17.5901C21.0706 17.104 21.4453 16.5178 21.6817 15.8722C21.9182 15.2266 22.0108 14.5372 21.9528 13.8522L21.9724 13.8718C21.8955 13.0527 22.0736 12.2298 22.4824 11.5154C22.8911 10.801 23.5106 10.2299 24.2564 9.87987C25.0021 9.52989 25.8379 9.41807 26.6496 9.55969C27.4613 9.70131 28.2096 10.0895 28.7923 10.6712C29.3749 11.253 29.7638 12 29.9056 12.8105C30.0474 13.6209 29.9354 14.4553 29.5849 15.1999C29.2343 15.9445 28.6623 16.563 27.9468 16.9711C27.2312 17.3792 26.407 17.557 25.5866 17.4802L25.6073 17.4998C24.9211 17.4416 24.2304 17.5337 23.5835 17.7697C22.9365 18.0056 22.3491 18.3797 21.862 18.8658C21.3749 19.3519 20.9999 19.9383 20.7633 20.5841C20.5267 21.2299 20.4342 21.9195 20.4921 22.6046L20.4715 22.585C20.5282 23.1669 20.4556 23.7541 20.2589 24.3047ZM26.6335 27.953L26.6128 27.9334C27.1958 27.9921 27.7847 27.9206 28.3368 27.7242C28.8889 27.5278 29.3904 27.2114 29.8049 26.7979C30.2194 26.3843 30.5368 25.8838 30.7338 25.3327C30.931 24.7817 31.003 24.1939 30.9447 23.6116L30.9654 23.6312C30.9075 22.9462 31.0001 22.2569 31.2364 21.6112C31.4729 20.9657 31.8477 20.3794 32.3345 19.8933C32.8214 19.4073 33.4086 19.0331 34.0552 18.7971C34.7019 18.5609 35.3922 18.4686 36.0784 18.5264L36.0577 18.5068C36.8784 18.5838 37.7029 18.4061 38.4187 17.9979C39.1347 17.5898 39.707 16.9712 40.0577 16.2264C40.4085 15.4816 40.5206 14.6469 40.3787 13.8361C40.2369 13.0254 39.8481 12.278 39.2651 11.696C38.6822 11.1141 37.9337 10.7258 37.1217 10.5842C36.3096 10.4425 35.4736 10.5545 34.7276 10.9047C33.9816 11.2549 33.362 11.8263 32.9532 12.541C32.5444 13.2558 32.3664 14.079 32.4435 14.8984L32.4239 14.8777C32.482 15.5628 32.3896 16.2522 32.1533 16.8979C31.9169 17.5436 31.5421 18.1299 31.0553 18.6161C30.5684 19.1021 29.9811 19.4763 29.3344 19.7123C28.6876 19.9483 27.9971 20.0405 27.311 19.9826L27.3306 20.0032C26.7475 19.9446 26.1586 20.0161 25.6065 20.2125C25.0545 20.4088 24.553 20.7252 24.1384 21.1388C23.7239 21.5524 23.4066 22.0529 23.2094 22.6039C23.0124 23.155 22.9404 23.7428 22.9986 24.325L22.979 24.3055C23.0368 24.9904 22.9441 25.6797 22.7076 26.3252C22.471 26.9707 22.0963 27.5569 21.6095 28.043C21.1227 28.529 20.5355 28.9031 19.889 29.1393C19.2425 29.3754 18.5521 29.4679 17.8661 29.4103L17.8857 29.4299C17.065 29.3529 16.2404 29.5306 15.5246 29.9387C14.8087 30.3469 14.2364 30.9655 13.8856 31.7103C13.5348 32.4552 13.4227 33.2898 13.5646 34.1006C13.7064 34.9113 14.0953 35.6587 14.6782 36.2406C15.2611 36.8226 16.0097 37.2109 16.8217 37.3525C17.6338 37.4941 18.4698 37.3822 19.2158 37.032C19.9618 36.6818 20.5814 36.1104 20.9902 35.3957C21.399 34.6809 21.5769 33.8577 21.4998 33.0383L21.5205 33.0579C21.4626 32.3728 21.5552 31.6836 21.7916 31.0379C22.028 30.3923 22.4028 29.8061 22.8896 29.3199C23.3765 28.8339 23.9637 28.4597 24.6103 28.2237C25.257 27.9876 25.9473 27.8952 26.6335 27.953ZM34.6689 22.2272C34.2561 22.6419 33.94 23.1424 33.743 23.6929C33.5461 24.2435 33.4732 24.8306 33.5295 25.4126L33.5099 25.393C33.5679 26.078 33.4753 26.7673 33.2388 27.413C33.0023 28.0585 32.6276 28.6448 32.1408 29.1309C31.6539 29.6169 31.0667 29.9911 30.42 30.2271C29.7735 30.4632 29.083 30.5557 28.397 30.4978L28.4166 30.5174C27.5959 30.4412 26.7717 30.6194 26.0562 31.028C25.3407 31.4366 24.7689 32.0555 24.4187 32.8004C24.0685 33.5454 23.9568 34.38 24.0991 35.1906C24.2415 36.0011 24.6307 36.7481 25.2137 37.3298C25.7968 37.9114 26.5453 38.2993 27.3573 38.4405C28.1693 38.5819 29.0051 38.4697 29.7509 38.1194C30.4967 37.769 31.1161 37.1976 31.5246 36.4829C31.9332 35.7682 32.1111 34.9451 32.034 34.1258L32.0547 34.1454C31.9967 33.4605 32.0892 32.7711 32.3257 32.1254C32.5622 31.4799 32.937 30.8936 33.4238 30.4075C33.9107 29.9214 34.4979 29.5472 35.1444 29.3112C35.7911 29.0751 36.4815 28.9827 37.1676 29.0405L37.1469 29.021C37.8173 29.0811 38.492 28.9714 39.1087 28.7019C39.7252 28.4324 40.2637 28.0119 40.6741 27.4793C41.0846 26.9467 41.3538 26.3192 41.4567 25.6552C41.5596 24.991 41.4929 24.3118 41.2629 23.6801C41.0328 23.0486 40.6468 22.4853 40.1406 22.0423C39.6345 21.5994 39.0245 21.2912 38.3672 21.1463C37.71 21.0015 37.0267 21.0245 36.3807 21.2134C35.7348 21.4024 35.1472 21.7511 34.6721 22.2272H34.6689ZM56.4175 14.486H59.9815V31.8296H56.4175V14.486ZM63.0488 22.3858C62.36 23.4246 61.995 24.6445 61.9999 25.8908C61.9938 26.7182 62.1527 27.5385 62.4673 28.3038C62.7818 29.069 63.2457 29.7639 63.8321 30.3478C64.4183 30.9316 65.115 31.3928 65.8815 31.7043C66.6481 32.0158 67.469 32.1715 68.2963 32.162C69.5427 32.162 70.761 31.792 71.7971 31.099C72.833 30.4062 73.64 29.4212 74.1158 28.2693C74.5916 27.1173 74.7149 25.85 74.4698 24.6279C74.2248 23.4058 73.6226 22.284 72.7395 21.4045C71.8565 20.5249 70.7322 19.9273 69.5091 19.6872C68.2861 19.447 67.0194 19.5753 65.8693 20.0558C64.7192 20.5362 63.7376 21.3471 63.0488 22.3858ZM70.5317 24.3931C70.8409 24.8326 71.0138 25.3536 71.0287 25.8908C71.0487 26.2585 70.9923 26.6263 70.8631 26.971C70.734 27.3158 70.5347 27.6301 70.278 27.8941C70.0213 28.158 69.7127 28.3658 69.3716 28.5045C69.0305 28.6432 68.6643 28.7098 68.2963 28.7C67.7589 28.7 67.2333 28.5416 66.7854 28.2446C66.3375 27.9476 65.9871 27.5252 65.778 27.0301C65.5688 26.535 65.5104 25.9892 65.6097 25.4611C65.709 24.9328 65.9619 24.4456 66.3366 24.0604C66.7113 23.6751 67.1913 23.409 67.7166 23.295C68.2418 23.181 68.7889 23.2244 69.2897 23.4198C69.7903 23.615 70.2223 23.9536 70.5317 24.3931ZM88.7971 19.9508V31.2308C88.7971 35.222 85.6843 36.9092 82.5247 36.9092C81.4123 36.9925 80.2983 36.7678 79.3051 36.2598C78.312 35.7517 77.4779 34.98 76.8943 34.0292L79.9351 32.2712C80.1804 32.7668 80.5712 33.1757 81.0552 33.4432C81.5393 33.7105 82.0934 33.8238 82.6435 33.7676C82.9951 33.8164 83.3532 33.7854 83.6912 33.677C84.0291 33.5687 84.3385 33.3857 84.5963 33.1417C84.854 32.8976 85.0536 32.5988 85.1803 32.2672C85.3069 31.9356 85.3573 31.5798 85.3279 31.226V30.14C84.9105 30.6506 84.3794 31.0564 83.7769 31.3246C83.1744 31.5928 82.5175 31.716 81.8587 31.6844C80.2913 31.635 78.8046 30.9776 77.7133 29.8513C76.622 28.7251 76.0118 27.2184 76.0118 25.6502C76.0118 24.0821 76.622 22.5754 77.7133 21.4492C78.8046 20.3228 80.2913 19.6655 81.8587 19.616C82.5175 19.5845 83.1744 19.7077 83.7769 19.9759C84.3794 20.2441 84.9105 20.6498 85.3279 21.1604V19.9484L88.7971 19.9508ZM85.3291 25.652C85.3531 25.0777 85.2045 24.5093 84.9027 24.02C84.6009 23.5307 84.1596 23.143 83.6355 22.9067C83.1115 22.6703 82.5288 22.5962 81.9622 22.6939C81.3957 22.7916 80.8715 23.0566 80.4567 23.4548C80.0421 23.853 79.7562 24.3661 79.6356 24.9282C79.5151 25.4903 79.5655 26.0756 79.7805 26.6088C79.9955 27.142 80.3651 27.5987 80.8417 27.92C81.3183 28.2414 81.8803 28.4128 82.4551 28.412C82.8296 28.4382 83.2053 28.3856 83.5583 28.2577C83.9112 28.1298 84.2334 27.9293 84.5041 27.6694C84.7748 27.4093 84.9882 27.0955 85.1302 26.748C85.2723 26.4006 85.3401 26.0273 85.3291 25.652ZM91.8644 22.3858C91.1755 23.4246 90.8106 24.6445 90.8155 25.8908C90.8094 26.7182 90.9683 27.5385 91.2829 28.3038C91.5974 29.069 92.0613 29.7639 92.6477 30.3478C93.2339 30.9316 93.9306 31.3928 94.6971 31.7043C95.4636 32.0158 96.2846 32.1715 97.1119 32.162C98.3583 32.162 99.5766 31.792 100.613 31.099C101.649 30.4062 102.456 29.4212 102.931 28.2693C103.407 27.1173 103.53 25.85 103.285 24.6279C103.04 23.4058 102.438 22.284 101.555 21.4045C100.672 20.5249 99.5478 19.9273 98.3247 19.6872C97.1017 19.447 95.835 19.5753 94.6849 20.0558C93.5348 20.5362 92.5532 21.3471 91.8644 22.3858ZM99.3473 24.3931C99.6565 24.8326 99.8294 25.3536 99.8443 25.8908C99.8643 26.2585 99.8079 26.6263 99.6787 26.971C99.5496 27.3158 99.3503 27.6301 99.0936 27.8941C98.8369 28.158 98.5283 28.3658 98.1871 28.5045C97.8461 28.6432 97.4799 28.7098 97.1119 28.7C96.5744 28.7 96.049 28.5416 95.601 28.2446C95.1531 27.9476 94.8027 27.5252 94.5936 27.0301C94.3844 26.535 94.3259 25.9892 94.4252 25.4611C94.5246 24.9328 94.7775 24.4456 95.1522 24.0604C95.5269 23.6751 96.007 23.409 96.5322 23.295C97.0573 23.181 97.6045 23.2244 98.1053 23.4198C98.6059 23.615 99.0379 23.9536 99.3473 24.3931ZM105.07 16.7672C105.07 16.3442 105.196 15.9308 105.431 15.5792C105.666 15.2275 106 14.9534 106.39 14.7916C106.781 14.6297 107.211 14.5874 107.626 14.6699C108.041 14.7524 108.422 14.9561 108.721 15.2551C109.02 15.5542 109.223 15.9352 109.306 16.35C109.388 16.7648 109.346 17.1948 109.184 17.5855C109.022 17.9763 108.748 18.3102 108.397 18.5452C108.045 18.7802 107.632 18.9056 107.209 18.9056C106.643 18.8999 106.103 18.6729 105.703 18.273C105.303 17.8732 105.076 17.3326 105.07 16.7672ZM105.43 19.9508H108.995V31.8308H105.425L105.43 19.9508ZM124.048 28.2023C124.311 27.4615 124.425 26.676 124.384 25.8908C124.426 25.1056 124.312 24.3198 124.048 23.5789C123.785 22.8379 123.378 22.1563 122.85 21.5734C122.322 20.9904 121.684 20.5176 120.973 20.1821C120.262 19.8466 119.491 19.655 118.706 19.6184C118.045 19.5824 117.385 19.6937 116.773 19.9442C116.161 20.1947 115.613 20.5782 115.167 21.0668V19.9508H111.603V36.5816H115.167V30.7124C115.612 31.2014 116.161 31.5852 116.773 31.836C117.385 32.0867 118.045 32.198 118.706 32.162C119.491 32.1253 120.262 31.9337 120.973 31.5983C121.684 31.2628 122.321 30.79 122.849 30.2072C123.377 29.6244 123.784 28.943 124.048 28.2023ZM120.31 24.3397C120.629 24.7954 120.806 25.3349 120.82 25.8908C120.847 26.2721 120.793 26.6548 120.661 27.0136C120.529 27.3724 120.323 27.6992 120.056 27.973C119.79 28.2466 119.468 28.4608 119.113 28.6013C118.757 28.7419 118.376 28.8059 117.994 28.7888C117.438 28.789 116.894 28.6249 116.431 28.3175C115.967 28.0099 115.605 27.5726 115.389 27.0601C115.173 26.5476 115.113 25.9829 115.216 25.4364C115.319 24.8898 115.582 24.386 115.97 23.9878C116.358 23.5896 116.855 23.3148 117.399 23.1978C117.943 23.0807 118.509 23.1266 119.027 23.3298C119.544 23.5328 119.991 23.8842 120.31 24.3397ZM135.382 28.2656C135.382 30.998 133.008 32.162 130.442 32.162C129.405 32.2559 128.364 32.0368 127.454 31.5326C126.543 31.0286 125.805 30.263 125.334 29.3348L128.421 27.5768C128.546 28.0058 128.814 28.3792 129.181 28.6342C129.548 28.8893 129.992 29.0108 130.437 28.9784C131.292 28.9784 131.72 28.7168 131.72 28.2428C131.72 27.7711 130.96 27.5592 129.987 27.2884C128.264 26.8082 125.875 26.1425 125.875 23.5148C125.875 20.924 128.061 19.6184 130.532 19.6184C131.461 19.589 132.38 19.8094 133.195 20.2564C134.01 20.7035 134.69 21.3608 135.164 22.16L132.123 23.7992C131.99 23.4881 131.768 23.223 131.485 23.0371C131.202 22.8512 130.87 22.7528 130.532 22.754C129.914 22.754 129.534 22.994 129.534 23.4188C129.535 23.9023 130.281 24.0982 131.239 24.3499C132.965 24.8036 135.382 25.4387 135.382 28.2656ZM148.401 31.8308V19.9508L144.841 19.9544V26.4344C144.841 28.1216 143.938 28.8812 142.632 28.8812C142.347 28.8985 142.063 28.8536 141.799 28.7498C141.534 28.646 141.295 28.4858 141.098 28.2802C140.901 28.0747 140.751 27.8287 140.66 27.5594C140.568 27.2902 140.535 27.0042 140.565 26.7212V19.9508H137.001V27.2432C137.001 30.4532 139.041 32.1632 141.441 32.1632C142.082 32.2074 142.723 32.099 143.313 31.847C143.904 31.595 144.426 31.2066 144.837 30.7136V31.8308H148.401ZM168.837 24.536V31.8296H165.273V24.8444C165.273 23.6564 164.703 22.8968 163.563 22.8968C162.375 22.8968 161.709 23.7284 161.709 25.13V31.8296H158.146V24.8444C158.146 23.6564 157.576 22.8968 156.435 22.8968C155.247 22.8968 154.582 23.7284 154.582 25.13V31.8296H151.018V19.9496H154.582V21.0416C154.952 20.5571 155.437 20.1729 155.992 19.9241C156.549 19.6752 157.159 19.5698 157.766 19.6172C158.375 19.5873 158.983 19.716 159.529 19.9907C160.073 20.2653 160.538 20.6766 160.877 21.1844C161.272 20.6531 161.795 20.2307 162.398 19.9566C163 19.6826 163.663 19.5658 164.323 19.6172C167.05 19.6184 168.837 21.566 168.837 24.536ZM174.496 17.2328C174.496 18.6935 173.312 19.8776 171.851 19.8776C170.391 19.8776 169.207 18.6935 169.207 17.2328C169.207 15.7721 170.391 14.588 171.851 14.588C173.312 14.588 174.496 15.7721 174.496 17.2328Z" fill="#626981"/>
</svg>
