<svg width="187" height="48" viewBox="0 0 187 48" fill="none" xmlns="http://www.w3.org/2000/svg">
<path fill-rule="evenodd" clip-rule="evenodd" d="M32.8195 8C23.7068 8 16.3195 15.1634 16.3195 24C25.4322 24 32.8195 16.8366 32.8195 8ZM32.8195 40C23.7068 40 16.3195 32.8366 16.3195 24C25.4322 24 32.8195 31.1634 32.8195 40ZM49.3195 24C40.2068 24 32.8195 16.8366 32.8195 8C41.9322 8 49.3195 15.1634 49.3195 24ZM49.3195 24C40.2068 24 32.8195 31.1634 32.8195 40C41.9322 40 49.3195 32.8366 49.3195 24ZM110.569 18.0109H113.685V15.2618H110.569V18.0109ZM110.569 32.1H113.685V19.7291H110.569V32.1ZM70.8697 32.1H60.6522V15.6055H63.7678V29.1906H70.8697V32.1ZM80.2742 31.6188C79.335 32.1686 78.2468 32.4436 77.0096 32.4436C75.7649 32.4436 74.673 32.1648 73.7336 31.6074C72.7944 31.0499 72.0612 30.2825 71.5344 29.305C71.0151 28.3199 70.7554 27.1897 70.7554 25.9145C70.7554 24.6239 71.0227 23.4899 71.5572 22.5125C72.0918 21.5274 72.8288 20.7599 73.768 20.2101C74.7072 19.6603 75.7878 19.3854 77.0096 19.3854C78.2544 19.3854 79.3464 19.6641 80.2856 20.2216C81.2325 20.779 81.9694 21.5503 82.4964 22.5354C83.0232 23.5129 83.2868 24.6392 83.2868 25.9145C83.2868 27.1974 83.0195 28.3314 82.485 29.3165C81.958 30.2939 81.2211 31.0613 80.2742 31.6188ZM74.799 28.5605C75.303 29.2096 76.0398 29.5341 77.0096 29.5341C78.01 29.5341 78.7545 29.1981 79.2432 28.5261C79.7397 27.8465 79.9878 26.976 79.9878 25.9145C79.9878 24.8148 79.7358 23.9367 79.2318 23.2799C78.7355 22.6232 77.9948 22.2948 77.0096 22.2948C75.994 22.2948 75.2456 22.6309 74.7646 23.3028C74.2911 23.9672 74.0544 24.8378 74.0544 25.9145C74.0544 27.0218 74.3025 27.9038 74.799 28.5605ZM89.4482 32.4436C90.0286 32.4436 90.5631 32.3748 91.0519 32.2374C91.5482 32.0999 91.9988 31.9052 92.4035 31.6532V32.9018C92.4188 33.3599 92.3004 33.7417 92.0484 34.0472C91.804 34.3603 91.4757 34.5932 91.0633 34.7459C90.6509 34.9063 90.2118 34.9865 89.7461 34.9865C89.3108 34.9865 88.906 34.891 88.5319 34.7001C88.1653 34.5092 87.8827 34.2305 87.6842 33.8639L84.7977 35.2614C85.2711 36.0632 85.9469 36.7085 86.8251 37.1972C87.7034 37.6935 88.6693 37.9418 89.7231 37.9418C90.6319 37.9418 91.4757 37.8195 92.2546 37.5752C93.0335 37.3385 93.6902 36.9758 94.2248 36.487C94.7669 35.9983 95.1374 35.3759 95.3359 34.6199C95.4046 34.3526 95.4504 34.0816 95.4733 33.8066C95.5038 33.5394 95.5191 33.253 95.5191 32.9476V19.729H92.7929V20.4163C92.3729 20.0879 91.8956 19.8359 91.3611 19.6603C90.8342 19.477 90.2501 19.3854 89.6086 19.3854C88.425 19.3854 87.394 19.668 86.5159 20.233C85.6377 20.7981 84.9542 21.5732 84.4655 22.5583C83.9844 23.5357 83.7439 24.6545 83.7439 25.9145C83.7439 27.1516 83.9806 28.2626 84.4541 29.2478C84.9351 30.2328 85.6033 31.0118 86.4586 31.5845C87.3138 32.1572 88.3104 32.4436 89.4482 32.4436ZM89.9522 29.6716C89.2803 29.6716 88.7304 29.5035 88.3028 29.1676C87.8752 28.8316 87.5582 28.3811 87.3521 27.8159C87.1459 27.2432 87.0428 26.6094 87.0428 25.9145C87.0428 25.2272 87.1497 24.6011 87.3635 24.0359C87.5774 23.4632 87.9057 23.0089 88.3486 22.6728C88.7991 22.3292 89.3719 22.1574 90.0668 22.1574C91.0442 22.1574 91.7429 22.5049 92.1629 23.1998C92.583 23.887 92.7929 24.7919 92.7929 25.9145C92.7929 27.037 92.5791 27.9457 92.1515 28.6406C91.7315 29.3279 90.9984 29.6716 89.9522 29.6716ZM106.184 31.6188C105.245 32.1686 104.156 32.4436 102.919 32.4436C101.675 32.4436 100.583 32.1648 99.6433 31.6074C98.7041 31.0499 97.9709 30.2825 97.4441 29.305C96.9248 28.3199 96.6651 27.1897 96.6651 25.9145C96.6651 24.6239 96.9324 23.4899 97.4669 22.5125C98.0015 21.5274 98.7384 20.7599 99.6777 20.2101C100.617 19.6603 101.697 19.3854 102.919 19.3854C104.164 19.3854 105.256 19.6641 106.195 20.2216C107.142 20.779 107.879 21.5503 108.406 22.5354C108.933 23.5129 109.196 24.6392 109.196 25.9145C109.196 27.1974 108.929 28.3314 108.394 29.3165C107.868 30.2939 107.131 31.0613 106.184 31.6188ZM100.709 28.5605C101.213 29.2096 101.949 29.5341 102.919 29.5341C103.92 29.5341 104.664 29.1981 105.153 28.5261C105.649 27.8465 105.897 26.976 105.897 25.9145C105.897 24.8148 105.645 23.9367 105.141 23.2799C104.645 22.6232 103.904 22.2948 102.919 22.2948C101.904 22.2948 101.155 22.6309 100.674 23.3028C100.201 23.9672 99.9641 24.8378 99.9641 25.9145C99.9641 27.0218 100.212 27.9038 100.709 28.5605ZM118.86 37.5981H115.722V19.729H118.471V20.4163C118.891 20.0879 119.364 19.8359 119.892 19.6603C120.426 19.477 121.014 19.3854 121.656 19.3854C122.839 19.3854 123.87 19.668 124.748 20.233C125.626 20.7981 126.306 21.5732 126.787 22.5583C127.276 23.5357 127.52 24.6545 127.52 25.9145C127.52 27.1516 127.28 28.2626 126.798 29.2478C126.325 30.2328 125.661 31.0118 124.806 31.5845C123.951 32.1572 122.953 32.4436 121.816 32.4436C121.235 32.4436 120.697 32.3748 120.2 32.2374C119.712 32.0999 119.265 31.9052 118.86 31.6532V37.5981ZM119.112 28.6406C119.541 29.3279 120.273 29.6716 121.312 29.6716C121.984 29.6716 122.534 29.5035 122.962 29.1676C123.389 28.8316 123.706 28.3811 123.912 27.8159C124.118 27.2432 124.222 26.6094 124.222 25.9145C124.222 25.2272 124.114 24.6011 123.9 24.0359C123.687 23.4632 123.355 23.0089 122.904 22.6728C122.461 22.3292 121.892 22.1574 121.198 22.1574C120.227 22.1574 119.529 22.5049 119.101 23.1998C118.681 23.887 118.471 24.7919 118.471 25.9145C118.471 27.037 118.685 27.9457 119.112 28.6406ZM133.165 32.4436C134.783 32.4436 136.051 32.0809 136.967 31.3554C137.884 30.6299 138.342 29.6334 138.342 28.3658C138.342 27.4036 138.044 26.6438 137.449 26.0863C136.86 25.5289 135.86 25.0668 134.447 24.7003C133.485 24.4559 132.767 24.2573 132.294 24.1046C131.828 23.952 131.519 23.803 131.366 23.6579C131.221 23.5129 131.149 23.3334 131.149 23.1196C131.149 22.7606 131.32 22.4858 131.664 22.2948C132.016 22.1039 132.477 22.0276 133.05 22.0658C134.264 22.1574 134.929 22.6767 135.043 23.6236L138.227 23.0508C138.067 21.9283 137.517 21.0387 136.578 20.3819C135.639 19.7176 134.44 19.3854 132.981 19.3854C131.485 19.3854 130.289 19.7366 129.396 20.4392C128.503 21.1417 128.056 22.0886 128.056 23.2799C128.056 24.2268 128.365 24.9752 128.983 25.525C129.602 26.0672 130.667 26.533 132.179 26.9225C133.073 27.1592 133.729 27.3501 134.149 27.4952C134.577 27.6403 134.852 27.7892 134.974 27.9419C135.096 28.087 135.157 28.2818 135.157 28.5261C135.157 28.9156 135.004 29.221 134.699 29.4425C134.394 29.6563 133.959 29.7632 133.393 29.7632C132.706 29.7632 132.137 29.599 131.687 29.2706C131.244 28.9423 130.957 28.488 130.828 27.9076L127.643 28.3886C127.849 29.6792 128.43 30.6796 129.385 31.3898C130.347 32.0923 131.607 32.4436 133.165 32.4436ZM146.426 32.0198C145.761 32.3176 144.983 32.4665 144.089 32.4665C143.12 32.4665 142.329 32.3023 141.718 31.974C141.107 31.6455 140.63 31.2294 140.287 30.7254C139.95 30.2214 139.71 29.6983 139.565 29.1561C139.42 28.6063 139.332 28.1061 139.301 27.6556C139.27 27.205 139.255 26.8766 139.255 26.6705V19.729H142.417V25.5708C142.417 25.8534 142.432 26.2161 142.463 26.659C142.493 27.0943 142.589 27.5334 142.749 27.9763C142.909 28.4192 143.169 28.7896 143.528 29.0874C143.895 29.3852 144.41 29.5341 145.075 29.5341C145.342 29.5341 145.628 29.4921 145.933 29.4081C146.239 29.3241 146.525 29.1638 146.793 28.927C147.06 28.6827 147.278 28.3276 147.445 27.8618C147.621 27.3883 147.709 26.7698 147.709 26.0061V19.729H150.847V32.1H148.099V30.8285C147.648 31.3249 147.091 31.722 146.426 32.0198ZM152.652 32.1H155.79V24.6087C155.79 23.8986 155.984 23.3221 156.374 22.8791C156.771 22.4285 157.294 22.2033 157.944 22.2033C158.623 22.2033 159.154 22.4324 159.536 22.8906C159.925 23.3411 160.12 23.9749 160.12 24.792V32.1H163.236V24.6087C163.236 23.8986 163.43 23.3221 163.82 22.8791C164.217 22.4285 164.74 22.2033 165.388 22.2033C166.069 22.2033 166.599 22.4324 166.981 22.8906C167.37 23.3411 167.566 23.9749 167.566 24.792V32.1H170.68V23.9673C170.68 22.6157 170.318 21.5237 169.592 20.6913C168.875 19.8513 167.809 19.4313 166.396 19.4313C165.603 19.4313 164.874 19.6031 164.209 19.9467C163.544 20.2904 163.014 20.76 162.616 21.3557C162.296 20.7753 161.838 20.3095 161.242 19.9582C160.646 19.607 159.906 19.4313 159.02 19.4313C158.271 19.4313 157.585 19.5802 156.958 19.878C156.332 20.1682 155.812 20.5691 155.4 21.0807V19.7291H152.652V32.1Z" fill="#626981"/>
</svg>
