<svg width="187" height="48" viewBox="0 0 187 48" fill="none" xmlns="http://www.w3.org/2000/svg">
<g clip-path="url(#clip0_1_5146)">
<path fill-rule="evenodd" clip-rule="evenodd" d="M103.874 0.0523104C103.76 -0.0507552 103.536 0.0048206 103.321 0.163414C102.083 1.07777 104.491 3.67446 105.895 5.1879L105.895 5.18796C106.254 5.57517 106.547 5.89147 106.697 6.09053C106.728 6.13764 106.794 6.12099 106.871 6.06633C106.943 6.01681 106.988 5.95282 106.995 5.89224C107.012 5.82136 107.01 5.75342 106.99 5.70608C106.439 3.67389 105.55 1.45407 103.874 0.0523104ZM112.169 1.28704C112.348 1.38814 112.448 1.48457 112.498 1.59232C112.571 1.73366 112.533 1.83145 112.409 1.88135C111.493 2.31844 110.327 3.94651 109.612 4.94592L109.612 4.94597L109.612 4.946C109.459 5.15886 109.327 5.3432 109.222 5.48143C109.078 5.66254 108.744 5.5573 108.694 5.25948C108.704 4.92274 110.015 2.44558 110.746 1.77088C110.767 1.7516 110.789 1.73096 110.812 1.70938C111.104 1.43615 111.557 1.0123 112.169 1.28704ZM126.788 6.0681C126.802 6.02612 126.802 5.95616 126.802 5.9002C126.703 5.89276 126.604 5.88138 126.508 5.87024C126.422 5.86042 126.339 5.85079 126.258 5.84423C126.187 5.84423 126.115 5.83024 126.058 5.78826C125.958 5.74628 125.915 5.69032 125.9 5.59237C125.9 5.49443 125.958 5.42447 126.058 5.3825C126.1 5.35135 126.159 5.34331 126.215 5.33552C126.235 5.33281 126.254 5.33013 126.272 5.32652L126.273 5.32649C126.401 5.31252 126.53 5.29854 126.659 5.29854C127.017 5.29854 127.374 5.29854 127.732 5.28455C127.832 5.28455 127.947 5.29854 128.033 5.34052C128.262 5.45246 128.262 5.69032 128.047 5.80225C127.975 5.84423 127.89 5.85822 127.789 5.87221C127.672 5.87221 127.544 5.88376 127.403 5.89636L127.36 5.9002V6.01213C127.374 6.55782 127.403 7.11749 127.546 7.64919C127.575 7.77511 127.575 7.90105 127.518 8.02697C127.403 8.27883 127.117 8.3208 126.931 8.11093C126.816 7.99911 126.788 7.85937 126.759 7.7196L126.759 7.71915C126.716 7.15947 126.716 6.61379 126.788 6.0681ZM130.752 6.57181C130.752 6.57181 130.737 6.55782 130.737 6.54383C130.723 6.55776 130.712 6.5717 130.702 6.58564C130.691 6.59969 130.68 6.61373 130.666 6.62777C130.601 6.72591 130.53 6.82405 130.458 6.92219C130.386 7.01994 130.315 7.11769 130.251 7.21543L130.179 7.28539C130.05 7.41133 129.922 7.42531 129.764 7.31339C129.607 7.17347 129.478 7.00556 129.349 6.83765C129.321 6.79568 129.292 6.75371 129.263 6.69773C129.233 6.80492 129.217 6.89176 129.201 6.98186C129.194 7.02114 129.186 7.06103 129.178 7.10351L129.176 7.10987C129.134 7.34561 129.091 7.58148 129.034 7.83109C129.02 7.90105 129.006 7.97101 128.963 8.05495C128.92 8.16689 128.82 8.20887 128.677 8.19487C128.562 8.18089 128.476 8.11092 128.448 7.99899C128.419 7.94301 128.405 7.87305 128.419 7.81709C128.419 7.56523 128.433 7.31339 128.462 7.06153C128.491 6.83682 128.523 6.61212 128.555 6.38741C128.587 6.16438 128.619 5.94134 128.648 5.7183C128.652 5.70103 128.655 5.68508 128.658 5.66965C128.665 5.63509 128.671 5.60308 128.691 5.56439C128.762 5.43846 128.877 5.35451 129.02 5.34052C129.178 5.34052 129.278 5.41048 129.364 5.5364C129.378 5.56439 129.392 5.59237 129.421 5.62036C129.532 5.82148 129.638 6.02762 129.746 6.23577C129.818 6.37517 129.89 6.51547 129.965 6.65576C129.965 6.65576 129.979 6.66975 129.993 6.69773C130.022 6.65576 130.036 6.61379 130.05 6.55782C130.131 6.40939 130.198 6.25396 130.266 6.09648L130.266 6.09625L130.266 6.0955C130.294 6.03063 130.322 5.96542 130.351 5.9002C130.408 5.77427 130.48 5.66233 130.566 5.5504C130.637 5.42447 130.766 5.34052 130.938 5.3685C131.109 5.38249 131.21 5.48044 131.253 5.62036C131.324 5.84423 131.396 6.08209 131.453 6.33395C131.497 6.54156 131.529 6.75283 131.562 6.96589L131.562 6.96618L131.563 6.96645L131.563 6.96672C131.594 7.16981 131.626 7.37452 131.668 7.57923C131.696 7.71915 131.682 7.84507 131.625 7.97101C131.496 8.22285 131.21 8.25084 131.024 8.01297C130.938 7.91503 130.923 7.80309 130.909 7.67717C130.872 7.36026 130.823 7.04335 130.774 6.71718L130.752 6.57181ZM97.6915 6.79179C97.6456 6.63256 97.6646 6.44098 97.7641 6.17507C98.1693 5.34212 99.0451 5.39972 99.6098 5.43687C99.6544 5.43981 99.6971 5.44262 99.7375 5.44485C101.143 5.52718 104.827 7.03719 105.148 7.38988C105.368 7.75407 105.106 8.16026 104.784 8.09276C104.545 8.03636 104.234 7.95437 103.875 7.85968L103.874 7.85956L103.874 7.85942L103.874 7.85941L103.874 7.8594C102.187 7.41426 99.4383 6.68909 98.0526 7.02413C97.8739 7.0792 97.7422 7.00831 97.6915 6.79179ZM67.8211 24.4665C68.2229 24.1741 68.6597 23.9306 69.1219 23.7416C69.6055 23.6065 70.1209 23.6288 70.5904 23.8055C71.0597 23.9823 71.4575 24.3036 71.7235 24.7209C71.9614 25.1372 72.0545 25.6179 71.9888 26.0905C71.9231 26.5629 71.7022 27.0018 71.3592 27.341C71.0934 27.6159 70.7915 27.8553 70.4617 28.0532C69.6737 28.551 68.882 29.0341 68.0885 29.5183L68.0884 29.5183L68.0883 29.5184C67.4017 29.9373 66.7138 30.357 66.026 30.7877C65.7225 31.0201 65.4006 31.2285 65.0634 31.4109C64.5503 31.6611 63.964 31.7281 63.4058 31.6003C62.8476 31.4727 62.3526 31.1582 62.0065 30.7114C61.7477 30.3951 61.5292 30.0492 61.356 29.6812C60.9334 28.8126 60.506 27.9451 60.0782 27.0767L60.0781 27.0766C59.0839 25.0586 58.0872 23.0357 57.1414 20.9816C56.533 19.7424 56.0358 18.3219 55.5534 16.9439L55.5154 16.8354C55.3016 16.4252 55.2598 15.9497 55.399 15.5098C55.5382 15.07 55.8475 14.7006 56.2609 14.4802C56.6744 14.2599 57.1595 14.206 57.613 14.3299C58.0665 14.4538 58.4527 14.7459 58.6894 15.1438C59.417 16.0892 60.061 17.0934 60.6146 18.1455C61.3818 19.5346 62.1296 20.9236 62.8707 22.3003L62.8708 22.3006L62.871 22.3009C63.4869 23.445 64.0982 24.5805 64.7121 25.7002C64.7909 25.8366 64.8778 25.9682 64.9723 26.0945C65.9905 25.6759 66.9482 25.1286 67.8211 24.4665ZM71.0427 21.595C73.7483 26.3262 79.1337 27.2547 82.3467 23.5791C85.0264 20.6029 85.3516 15.4138 83.0622 11.3438C82.4346 10.1003 81.4211 9.08268 80.1666 8.43623C78.912 7.78978 77.4805 7.54764 76.0768 7.74441C74.9319 7.96327 73.8623 8.46209 72.9679 9.19434C68.7792 12.6919 69.1174 18.2372 71.0427 21.595ZM79.1076 12.5902C80.0197 13.1527 80.7045 14.0066 81.0459 15.0067L81.0069 15.0195C81.415 16.2014 81.4364 17.4783 81.068 18.6727C80.6997 19.8671 79.96 20.9196 78.9516 21.684C78.6067 21.9132 78.2148 22.0659 77.8032 22.1316C77.3916 22.1971 76.9704 22.174 76.569 22.0637C76.1675 21.9535 75.7955 21.7588 75.4791 21.4933C75.1626 21.2278 74.9094 20.8979 74.7369 20.5266C73.3841 18.25 73.7744 14.4217 75.6345 12.8064C76.0999 12.3856 76.6992 12.1344 77.3319 12.095C77.9644 12.0556 78.5915 12.2305 79.1076 12.5902ZM95.4587 16.6094C95.1298 16.6785 94.79 16.6827 94.4593 16.6215C94.1288 16.5603 93.814 16.4351 93.5336 16.2533C93.2883 16.116 93.0771 15.9274 92.9152 15.7008C92.7534 15.4743 92.6449 15.2155 92.5977 14.943C92.5504 14.6706 92.5655 14.3913 92.6418 14.1252C92.7181 13.8592 92.854 13.613 93.0393 13.4043C93.3622 12.9849 93.8206 12.6847 94.3401 12.5522C95.6964 12.1673 97.0927 11.9326 98.5027 11.8527C98.8125 11.8174 99.1264 11.8431 99.4258 11.928C99.7254 12.0131 100.004 12.1557 100.247 12.3477C100.489 12.5396 100.69 12.777 100.837 13.0458C100.984 13.3146 101.075 13.6095 101.104 13.9131C101.511 15.4043 101.555 16.9679 101.234 18.4791C100.064 23.363 96.0311 25.0418 91.5043 23.4774C90.2336 23.0591 89.1195 22.2798 88.3043 21.239C87.2171 19.9855 86.4463 18.5 86.0539 16.9019C85.736 15.4788 85.7708 14.0022 86.1556 12.595C86.5402 11.1879 87.2636 9.89105 88.2653 8.8129C89.2159 7.64108 90.4497 6.71886 91.8556 6.12928C92.7439 5.65053 93.7834 5.51441 94.7694 5.74772C94.993 5.80824 95.196 5.92617 95.3574 6.08927C95.5187 6.25239 95.6325 6.45472 95.6869 6.67531C95.7414 6.89589 95.7344 7.1267 95.6669 7.34379C95.5992 7.56087 95.4736 7.75632 95.3027 7.90988C94.9779 8.19739 94.6249 8.45299 94.249 8.67299C93.0925 9.39307 92.0862 10.3209 91.2832 11.4075C90.7568 12.1106 90.3943 12.9179 90.2213 13.7727C90.0481 14.6274 90.0688 15.5088 90.2816 16.3551C90.5766 17.5088 91.2312 18.5444 92.1547 19.3184C95.0165 21.8622 98.7368 19.4074 98.0864 15.9353C97.6006 16.0524 97.1453 16.1729 96.7033 16.2899C96.2815 16.4015 95.8717 16.51 95.4587 16.6094ZM102.848 18.4408C103.901 23.7825 108.714 26.3263 112.942 23.7825C116.441 21.7603 118.392 16.9145 117.534 12.374C117.331 11.0036 116.693 9.73014 115.711 8.73298C114.728 7.73581 113.45 7.06531 112.057 6.81598C110.898 6.67602 109.721 6.82476 108.636 7.24842C103.537 9.28339 102.08 14.6252 102.848 18.4408ZM113.332 12.3358C114.028 13.144 114.411 14.1664 114.412 15.2229C114.419 16.4762 114.025 17.7002 113.285 18.724C112.546 19.7478 111.498 20.5203 110.288 20.9336C109.887 21.0452 109.466 21.0699 109.055 21.0059C108.643 20.9419 108.251 20.7907 107.905 20.563C107.559 20.3353 107.269 20.0365 107.054 19.6875C106.838 19.3385 106.704 18.9477 106.659 18.5426C106.074 15.9606 107.687 12.4503 109.976 11.4837C110.55 11.224 111.198 11.167 111.81 11.3224C112.422 11.4778 112.96 11.836 113.332 12.3358ZM121.809 24.8511C121.745 25.3166 121.495 25.7382 121.113 26.0233C120.731 26.3082 120.249 26.4333 119.773 26.3709C119.297 26.3085 118.866 26.0637 118.574 25.6904C118.283 25.3172 118.155 24.8459 118.219 24.3804C118.283 23.915 118.533 23.4933 118.915 23.2083C119.297 22.9232 119.778 22.7982 120.255 22.8606C120.731 22.923 121.162 23.1677 121.453 23.541C121.745 23.9143 121.873 24.3856 121.809 24.8511ZM120.677 7.69365C120.925 7.32422 121.288 7.04288 121.712 6.8916C122.136 6.74033 122.599 6.72722 123.032 6.85423C123.472 6.96181 123.86 7.21382 124.132 7.56807C124.405 7.92233 124.544 8.35731 124.528 8.80017C124.47 9.51054 124.362 10.2161 124.203 10.9114C124.105 11.4443 124.009 11.9772 123.912 12.5097L123.912 12.5113L123.912 12.5141L123.911 12.5181L123.91 12.5234L123.909 12.53L123.908 12.5315C123.58 14.3433 123.253 16.1516 122.902 17.9448C122.694 18.8733 122.42 19.7636 122.121 20.7047C122.017 20.999 121.843 21.2648 121.614 21.4806C121.471 21.6429 121.289 21.7674 121.084 21.8426C120.88 21.9178 120.659 21.9413 120.442 21.9109C120.226 21.8804 120.02 21.7971 119.845 21.6686C119.67 21.5399 119.532 21.3703 119.442 21.1754C119.287 20.8256 119.203 20.4498 119.194 20.0688C119.194 18.4917 119.194 16.9019 119.299 15.312C119.475 13.0432 119.823 10.7901 120.339 8.57123C120.4 8.27396 120.514 7.98968 120.677 7.73181V7.69365ZM62.2046 36.1401C62.1295 35.7804 62.1716 35.4067 62.3252 35.0715C62.4809 34.7317 62.7429 34.4493 63.0735 34.2647C63.423 34.0663 63.8332 33.9958 64.231 34.0657C64.6204 34.1343 64.9731 34.333 65.2287 34.6277C65.6226 34.9578 65.9547 35.3525 66.2103 35.794L66.2169 35.8059C67.09 37.5005 67.9237 39.1944 68.7438 40.9002L68.7461 40.905C69.2446 41.9952 69.677 43.1099 70.0565 44.223C70.2956 44.8933 70.3452 45.6143 70.2001 46.3097C70.1742 46.6666 70.0412 47.0083 69.8176 47.2918C69.5895 47.581 69.2777 47.7964 68.9227 47.9099C68.5677 48.0234 68.1861 48.0298 67.8273 47.9284C67.4754 47.8289 67.1616 47.6299 66.9249 47.3568C66.3677 46.86 65.9473 46.2332 65.703 45.5355C65.6348 45.3392 65.5682 45.1434 65.5019 44.9482L65.5011 44.946C65.3371 44.4637 65.1743 43.9846 64.9909 43.5095C64.3419 41.8344 63.8554 40.677 63.4677 39.7713C63.3954 39.6023 63.3263 39.4417 63.2602 39.2879C62.9727 38.6194 62.7395 38.077 62.5311 37.5285C62.3642 37.0806 62.2545 36.6142 62.2046 36.1401ZM74.8517 30.8712C73.5657 30.5455 72.2227 30.4981 70.9162 30.7322C69.9043 30.8296 68.9091 31.0578 68.218 31.5099C67.8665 31.74 67.5823 32.0354 67.4242 32.4109C67.2653 32.7884 67.245 33.2202 67.3752 33.7013C67.6127 34.5814 67.9211 35.437 68.2284 36.29L68.2296 36.2934L68.2795 36.4317L68.2807 36.4348C69.2073 38.916 70.1428 41.3887 71.0867 43.853C71.1968 44.2413 71.3525 44.616 71.5506 44.9693L71.5543 44.9758C71.816 45.4148 72.1517 45.8074 72.5471 46.1372C72.7449 46.3185 72.9895 46.444 73.2547 46.5001C73.5225 46.5566 73.801 46.5402 74.0599 46.4525C74.3189 46.3649 74.5482 46.2094 74.723 46.003C74.8949 45.8 75.0075 45.5554 75.0488 45.2952C75.2194 44.588 75.1648 43.8468 74.892 43.1708C74.8073 42.9444 74.7408 42.7129 74.6707 42.4694L74.6698 42.4662L74.6639 42.4455C74.6423 42.3705 74.6205 42.2944 74.5975 42.217C76.7583 41.3912 79.0574 40.2808 79.8658 37.6975C80.1824 36.8048 80.2088 35.8382 79.9413 34.9301C79.6736 34.021 79.1243 33.2153 78.3692 32.6238C77.3415 31.7958 76.1409 31.1976 74.8517 30.8712ZM71.2871 34.0397C71.3297 34.0277 71.3726 34.0166 71.4155 34.0062C72.8223 33.79 74.2615 34.0781 75.4683 34.8173C76.0001 35.1789 76.2179 35.5807 76.2554 35.9673C76.294 36.3654 76.1459 36.7968 75.8486 37.2114C75.2866 37.9947 74.2612 38.6216 73.3349 38.7385C72.6596 37.218 71.9739 35.6359 71.2871 34.0397ZM88.3378 27.7632C86.8534 27.277 84.9564 27.3965 83.425 28.088C81.8854 28.7833 80.6709 30.0823 80.6685 31.9677C80.6377 32.7414 80.8638 33.504 81.313 34.1418C81.7604 34.777 82.4053 35.2542 83.1518 35.5027C83.4944 35.6547 83.8504 35.7681 84.2156 35.8843L84.2156 35.8843L84.2159 35.8844L84.2168 35.8847L84.2329 35.8899C84.3614 35.9308 84.491 35.9722 84.6217 36.0157C84.8194 36.0817 85.021 36.1416 85.2169 36.1998L85.2466 36.2086L85.2476 36.2089L85.2497 36.2095C85.3121 36.228 85.3737 36.2463 85.4346 36.2647C85.6995 36.3447 85.9543 36.427 86.1999 36.529C87.1398 36.9389 87.5675 37.4291 87.7098 37.8667C87.8511 38.3011 87.732 38.7486 87.4353 39.1253C87.1366 39.5043 86.6722 39.7901 86.1783 39.8819C85.6916 39.9725 85.184 39.8747 84.7644 39.4995L84.7599 39.4958C84.5228 39.2923 84.2586 39.1211 83.9745 38.9869C83.6901 38.8335 83.366 38.7647 83.0421 38.789C82.7171 38.8135 82.4066 38.9306 82.1491 39.1259C81.9052 39.2982 81.7163 39.5346 81.6046 39.8077C81.4922 40.0825 81.4624 40.383 81.519 40.6737C81.5804 40.9958 81.7189 41.2994 81.9249 41.5579L81.9419 41.5758C82.5944 42.2617 83.419 42.7687 84.3338 43.0465C85.2464 43.3235 86.2171 43.3629 87.1498 43.1607C89.7131 42.7323 91.4176 40.9162 91.7688 38.9206C92.1238 36.9026 91.0869 34.7571 88.3022 33.7212L88.2999 33.7203C87.697 33.5016 87.0735 33.3438 86.4735 33.1919L86.4715 33.1914L86.4529 33.1867C86.2421 33.1333 86.0342 33.0807 85.8312 33.0262C85.0716 32.8191 84.6962 32.5286 84.5432 32.2698C84.4003 32.028 84.4215 31.7623 84.5931 31.499C84.9529 30.9469 85.9379 30.4976 86.9821 30.7688L86.9906 30.7706C87.1254 30.8014 87.2556 30.8486 87.3782 30.9114L87.3954 30.9202L87.4136 30.9266C87.6532 31.0114 87.9102 31.0385 88.1628 31.0055C88.4154 30.9727 88.6561 30.8807 88.8647 30.7377C89.0733 30.5946 89.2436 30.4045 89.3612 30.1835C89.4767 29.9664 89.5381 29.7258 89.5403 29.4812C89.5739 29.1044 89.4733 28.7275 89.2554 28.4147C89.036 28.1 88.7116 27.8697 88.3378 27.7632ZM102.84 27.8871C102.543 27.7453 102.215 27.678 101.885 27.6912C101.555 27.7045 101.233 27.7979 100.949 27.9632C100.667 28.1272 100.431 28.357 100.261 28.632C100.106 28.8636 99.9985 29.1226 99.945 29.3945C99.8914 29.6663 99.8927 29.9456 99.9487 30.2167C100.004 30.5651 100.065 30.9039 100.126 31.2381C100.226 31.7911 100.324 32.3316 100.388 32.8827L100.39 32.8967C100.537 33.761 100.614 34.6352 100.62 35.5112L100.621 35.5236C100.671 36.4696 100.342 37.3972 99.7028 38.1096L99.6926 38.1223C99.4848 38.3827 99.207 38.5814 98.8901 38.6963C98.5733 38.8112 98.2301 38.8376 97.8988 38.7725C97.5674 38.7075 97.2612 38.5537 97.0142 38.3282C96.7673 38.1027 96.5891 37.8136 96.5002 37.495C96.3104 36.8233 96.2005 36.1324 96.1726 35.4362L96.4968 30.3893C96.5016 30.3235 96.5071 30.2558 96.5126 30.1875L96.5132 30.1806C96.5253 30.0296 96.5377 29.876 96.5429 29.7325C96.5505 29.5183 96.544 29.2979 96.4929 29.0893C96.4406 28.8761 96.3413 28.6733 96.165 28.5007C95.9904 28.3297 95.7548 28.2036 95.4583 28.1177C94.9221 27.966 94.4687 27.9708 94.0909 28.1276C93.7129 28.2843 93.454 28.5754 93.2707 28.9116C93.0888 29.245 92.972 29.6397 92.8836 30.035C92.8181 30.3284 92.7654 30.6363 92.7153 30.9295C92.698 31.0305 92.681 31.1296 92.6639 31.226L92.6635 31.2288C92.3956 32.8364 92.3158 34.4686 92.4258 36.0938C92.4463 36.9721 92.6336 37.8391 92.9783 38.6504C93.3672 39.6972 94.0716 40.6042 94.9986 41.2516C95.9275 41.9004 97.0359 42.2579 98.1773 42.2768C99.3186 42.2956 100.439 41.975 101.39 41.3575C102.339 40.7408 103.075 39.8569 103.499 38.8228C104.094 37.5056 104.373 36.073 104.315 34.6343C104.28 33.5851 104.222 32.5279 104.164 31.476V31.476L104.164 31.4725C104.135 30.956 104.107 30.4405 104.081 29.9282C104.068 29.4145 103.895 28.9169 103.584 28.5023C103.392 28.2401 103.137 28.0287 102.84 27.8871ZM113.32 35.838C113.33 35.8254 113.34 35.813 113.35 35.8007C113.628 35.4561 113.908 35.1065 114.188 34.7559L114.236 34.697C114.723 34.0877 115.213 33.4745 115.707 32.8731L115.71 32.8695C116.162 32.337 116.649 31.8342 117.169 31.3644C117.459 31.0448 117.847 30.8243 118.275 30.7348C118.706 30.6447 119.154 30.6924 119.555 30.8706C119.941 31.0243 120.267 31.293 120.487 31.6386C120.707 31.983 120.81 32.386 120.782 32.7905C120.786 34.0706 120.725 35.3499 120.599 36.624L120.598 36.6276C120.467 37.7896 120.312 38.9743 120.156 40.1594L120.155 40.1652C120.02 41.195 119.885 42.2251 119.766 43.2414C119.686 43.9611 119.397 44.6432 118.933 45.2067C118.733 45.5051 118.447 45.7392 118.112 45.8791C117.771 46.0213 117.394 46.0599 117.031 45.9902C116.667 45.9204 116.334 45.7454 116.073 45.4878C115.815 45.2323 115.64 44.9075 115.572 44.5546C115.414 43.9275 115.414 43.2723 115.571 42.645C115.812 41.2298 116.039 39.8149 116.268 38.3881L116.435 37.3501L113.617 39.6701L113.255 39.9357C113.071 40.0719 112.859 40.168 112.634 40.2162C112.409 40.2645 112.176 40.2643 111.951 40.2156C111.726 40.1668 111.514 40.0708 111.331 39.934C111.15 39.7988 111 39.6271 110.893 39.4307C110.327 38.5032 109.914 37.4943 109.67 36.441C109.653 36.3884 109.636 36.336 109.62 36.2822C109.387 36.7184 109.182 37.119 108.97 37.5663C108.425 38.7227 107.876 39.884 107.303 41.0315C107.108 41.4165 106.87 41.78 106.593 42.1133C106.376 42.3839 106.073 42.5763 105.732 42.6604C105.39 42.7446 105.029 42.7153 104.707 42.5769C104.402 42.4481 104.147 42.2293 103.976 41.9511C103.809 41.6785 103.731 41.3623 103.754 41.0454C103.735 40.6914 103.789 40.3373 103.913 40.0039C103.981 39.7937 104.05 39.5829 104.118 39.3721C104.46 38.3156 104.803 37.2559 105.219 36.2502L105.221 36.2452C105.897 34.6965 106.594 33.1599 107.285 31.6335L107.289 31.6265L107.293 31.6159C107.571 31.0036 107.848 30.3929 108.122 29.7837C108.243 29.501 108.404 29.2363 108.601 28.9977C108.838 28.6868 109.163 28.451 109.536 28.3197C109.91 28.1882 110.316 28.1677 110.701 28.2607C111.088 28.3463 111.439 28.5433 111.71 28.8264C111.981 29.1102 112.159 29.4675 112.219 29.8514L112.223 29.8727V29.8941C112.223 30.08 112.228 30.1672 112.284 30.2561L112.314 30.3033L112.323 30.358C112.404 30.848 112.485 31.3395 112.566 31.8289C112.79 33.1928 113.014 34.5547 113.255 35.9171C113.278 35.8901 113.299 35.8637 113.32 35.838Z" fill="#626981"/>
</g>
<defs>
<clipPath id="clip0_1_5146">
<rect width="187" height="48" fill="white"/>
</clipPath>
</defs>
</svg>
