<svg width="187" height="48" viewBox="0 0 187 48" fill="none" xmlns="http://www.w3.org/2000/svg">
<path fill-rule="evenodd" clip-rule="evenodd" d="M53.6981 14.337C54.6179 15.4304 55.3756 16.6504 55.9481 17.9595C56.7821 19.8681 57.2111 21.929 57.2081 24.012C57.2052 28.05 55.6013 31.9222 52.7481 34.7797C49.8947 37.6372 46.025 39.2468 41.9869 39.2557C40.0306 39.2546 38.0933 38.8725 36.2831 38.1307C34.992 37.6177 33.78 36.9246 32.6831 36.072C30.9737 34.7692 29.5595 33.1192 28.5337 31.2304C27.5079 29.3418 26.8937 27.2573 26.7315 25.114C26.5693 22.9709 26.8629 20.8176 27.5929 18.7961C28.3228 16.7746 29.4726 14.9305 30.9666 13.3854C32.4606 11.8402 34.2648 10.6289 36.2606 9.83133C38.2565 9.0337 40.3986 8.66781 42.546 8.75771C44.6934 8.84761 46.7975 9.39126 48.7197 10.3529C50.6418 11.3145 52.3386 12.6723 53.6981 14.337ZM47.0606 12.9757C45.468 12.2345 43.7324 11.8505 41.9756 11.8507L41.9869 11.8282C39.9374 11.8267 37.9207 12.3437 36.1246 13.331C34.3285 14.3184 32.8114 15.7441 31.7145 17.4754C30.6175 19.2068 29.9764 21.1874 29.8507 23.2331C29.725 25.2788 30.1189 27.3232 30.9956 29.1757C31.5038 28.6419 31.8169 27.9522 31.8844 27.2182C32.0836 25.8419 32.7226 24.5669 33.706 23.5836C34.6893 22.6002 35.9643 21.9612 37.3406 21.762C38.1143 21.6918 38.84 21.357 39.3954 20.8138C39.9509 20.2707 40.302 19.5526 40.3894 18.7807C40.5886 17.4044 41.2276 16.1294 42.211 15.146C43.1943 14.1627 44.4693 13.5237 45.8456 13.3245C46.2639 13.2607 46.6723 13.1435 47.0606 12.9757ZM32.8069 31.7657C32.7619 31.8057 32.7169 31.8457 32.6719 31.887C33.5439 32.9076 34.5776 33.7779 35.7319 34.4632C36.0337 33.9997 36.2226 33.4718 36.2831 32.922C36.4893 31.5428 37.135 30.2671 38.124 29.2841C39.1131 28.3011 40.3928 27.6634 41.7731 27.4657C42.5479 27.3893 43.2724 27.0474 43.824 26.4979C44.3755 25.9484 44.7201 25.2252 44.7994 24.4507C44.9951 23.0729 45.633 21.7961 46.6169 20.812C47.601 19.8281 48.8778 19.1902 50.2556 18.9945C51.0317 18.9211 51.7549 18.5694 52.2919 18.0045C52.3463 17.9576 52.3954 17.9047 52.4381 17.847C51.7421 16.6577 50.8437 15.5993 49.7831 14.7195C48.8517 15.5921 47.6725 16.1542 46.4081 16.3282C45.6318 16.3812 44.9007 16.7128 44.3494 17.262C43.7681 17.8321 43.4193 18.5979 43.3706 19.4107C43.1714 20.787 42.5324 22.062 41.549 23.0454C40.5657 24.0287 39.2907 24.6677 37.9144 24.867C37.1404 24.9303 36.4162 25.2744 35.8781 25.8345C35.319 26.379 34.972 27.1048 34.8994 27.882C34.7202 29.2645 34.0777 30.5454 33.0769 31.5157C32.9869 31.6057 32.8969 31.6857 32.8069 31.7657ZM38.6006 35.757C39.698 36.0716 40.8341 36.2307 41.9756 36.2295V36.1732C43.8348 36.166 45.6675 35.733 47.3333 34.9075C48.9992 34.082 50.4537 32.8857 51.5855 31.4109C52.7172 29.9359 53.4962 28.2212 53.8624 26.3984C54.2286 24.5757 54.1724 22.6934 53.6981 20.8957C52.844 21.4996 51.8554 21.8858 50.8181 22.0207C50.0454 22.0996 49.3235 22.4426 48.7742 22.9918C48.225 23.541 47.882 24.263 47.8031 25.0357C47.6033 26.4136 46.9626 27.6899 45.9771 28.6734C44.9915 29.657 43.714 30.295 42.3356 30.492C41.5629 30.5708 40.841 30.9138 40.2917 31.4631C39.7425 32.0123 39.3995 32.7342 39.3206 33.507C39.2201 34.2946 38.976 35.0572 38.6006 35.757ZM68.7619 17.3407H65.3869V30.987H68.7619V17.3407ZM75.3657 20.4457C72.1707 20.4457 70.1007 22.4595 70.1007 25.8345C70.1007 29.2657 72.1257 31.2345 75.3657 31.2345C78.6057 31.2345 80.6306 29.2095 80.6306 25.8345C80.6306 22.4595 78.5607 20.4457 75.3657 20.4457ZM75.3657 22.887C76.5132 22.887 77.2444 23.9782 77.2444 25.8345V25.8457C77.2444 27.7245 76.5244 28.7595 75.3657 28.7595C74.2069 28.7595 73.4982 27.657 73.4982 25.8345C73.4982 24.012 74.2182 22.887 75.3657 22.887ZM85.1419 31.6507H81.9019V31.662C82.0932 33.5295 83.9494 34.8682 86.9307 34.8682C90.1369 34.8682 92.3082 33.3382 92.3082 30.8745V20.637H88.9332V22.5157C88.6791 21.9086 88.2456 21.3935 87.6906 21.0396C87.1356 20.6858 86.4858 20.51 85.8282 20.5357C83.2407 20.5357 81.6882 22.572 81.6882 25.8007C81.6882 29.0295 83.3194 30.9082 85.7832 30.9082C86.4208 30.9429 87.0543 30.7856 87.6017 30.4568C88.1491 30.1278 88.5855 29.6425 88.8544 29.0632H88.9219V30.9532C88.9219 31.9657 88.2469 32.6632 86.9644 32.6632C86.5921 32.7133 86.2136 32.6417 85.8852 32.4594C85.5568 32.2769 85.2961 31.9933 85.1419 31.6507ZM86.9869 23.1457C88.1794 23.1457 88.9332 24.1807 88.9332 25.8232V25.8345C88.9332 27.4995 88.1907 28.4107 86.9869 28.4107C85.7832 28.4107 85.0632 27.477 85.0632 25.8232C85.0632 24.1695 85.7944 23.1457 86.9869 23.1457ZM98.8444 20.4345C95.6494 20.4345 93.5794 22.4482 93.5794 25.8232V25.8345C93.5794 29.2657 95.5932 31.2232 98.8444 31.2232C102.096 31.2232 104.121 29.1982 104.121 25.8232C104.121 22.4482 102.039 20.4345 98.8444 20.4345ZM98.8444 22.8757C99.9919 22.8757 100.723 23.967 100.723 25.8232V25.8457C100.723 27.7245 100.037 28.7707 98.8894 28.7707C97.7419 28.7707 97.0331 27.6795 97.0331 25.8457C97.0331 24.012 97.6969 22.8757 98.8444 22.8757ZM105.669 17.2199C105.487 17.508 105.394 17.8437 105.403 18.1845V18.207C105.401 18.4334 105.446 18.6579 105.535 18.8661C105.623 19.0745 105.754 19.2622 105.919 19.4175C106.084 19.5728 106.279 19.6923 106.492 19.7686C106.706 19.8449 106.932 19.8763 107.158 19.8607C107.499 19.854 107.83 19.7461 108.109 19.5509C108.389 19.3557 108.604 19.0819 108.728 18.7643C108.852 18.4466 108.878 18.0994 108.804 17.7667C108.73 17.4339 108.559 17.1306 108.313 16.8951C108.066 16.6597 107.755 16.5027 107.419 16.4442C107.084 16.3856 106.738 16.4281 106.426 16.5662C106.115 16.7043 105.851 16.9318 105.669 17.2199ZM108.778 20.6595H105.403V30.987H108.778V20.6595ZM116.968 31.122C119.533 31.122 121.029 29.1982 121.029 25.8232L121.074 25.8457C121.074 22.4707 119.533 20.5357 116.946 20.4907C116.283 20.4611 115.627 20.6364 115.068 20.9927C114.508 21.349 114.072 21.869 113.818 22.482H113.751V20.637H110.376V34.2945H113.751V29.2095H113.818C114.084 29.8125 114.529 30.3193 115.092 30.6614C115.656 31.0034 116.31 31.1642 116.968 31.122ZM115.719 23.1345C116.901 23.1345 117.654 24.1807 117.654 25.8232V25.8457C117.654 27.477 116.901 28.5007 115.719 28.5007C114.538 28.5007 113.762 27.4545 113.773 25.8232C113.784 24.192 114.538 23.1345 115.719 23.1345ZM131.402 23.877C131.323 21.7507 129.624 20.4232 126.823 20.4232V20.4457C124.033 20.4457 122.222 21.762 122.199 23.787C122.199 25.362 123.257 26.4307 125.271 26.847L127.217 27.2632C128.027 27.432 128.342 27.5445 128.342 28.0845C128.342 28.6245 127.892 28.9507 126.902 28.9507C125.912 28.9507 125.304 28.5007 125.203 27.7357H121.952C122.098 29.8395 123.977 31.212 126.846 31.212C129.714 31.212 131.661 29.8395 131.661 27.702C131.661 26.1382 130.783 25.3057 128.724 24.867L126.564 24.4282C125.811 24.2707 125.439 24.102 125.439 23.5732C125.439 23.0445 125.856 22.6845 126.789 22.6845C127.723 22.6845 128.331 23.1457 128.331 23.877H131.402ZM139.671 30.9645H142.922L142.967 20.637H139.592V26.4645C139.625 26.7077 139.603 26.955 139.532 27.1898C139.461 27.4244 139.34 27.6412 139.179 27.8256C139.017 28.0099 138.817 28.1575 138.594 28.2584C138.37 28.3593 138.127 28.4112 137.882 28.4107C136.836 28.4107 136.206 27.7582 136.206 26.532V20.637H132.831V27.3082C132.788 27.82 132.856 28.335 133.029 28.8184C133.202 29.3018 133.478 29.7425 133.836 30.1104C134.194 30.4784 134.628 30.765 135.106 30.9512C135.585 31.1374 136.098 31.2186 136.611 31.1895C137.28 31.2266 137.942 31.0337 138.486 30.6428C139.031 30.2519 139.424 29.6866 139.603 29.0407H139.671V30.9645ZM147.816 20.637H144.553L144.497 30.987H147.872V24.9007C147.846 24.6891 147.866 24.4746 147.929 24.2712C147.993 24.0677 148.099 23.88 148.241 23.7206C148.382 23.5612 148.556 23.4335 148.751 23.346C148.944 23.2586 149.156 23.2133 149.368 23.2132C150.291 23.2132 150.797 23.7757 150.797 24.8107V30.987H154.003V24.8782C153.976 24.6693 153.993 24.4569 154.055 24.2553C154.117 24.0538 154.221 23.868 154.361 23.7101C154.5 23.5523 154.673 23.4263 154.865 23.3406C155.057 23.2549 155.267 23.2114 155.477 23.2132C156.422 23.2132 156.928 23.7307 156.928 24.8557V30.987H160.303V23.9557C160.337 23.4977 160.273 23.0377 160.118 22.6058C159.961 22.174 159.716 21.7796 159.398 21.4486C159.079 21.1176 158.696 20.8571 158.269 20.6845C157.844 20.5117 157.387 20.4303 156.928 20.4457C156.225 20.4155 155.531 20.6202 154.957 21.0276C154.382 21.4349 153.959 22.0217 153.756 22.6957H153.688C153.58 22.0288 153.225 21.4272 152.694 21.0103C152.162 20.5933 151.493 20.3918 150.819 20.4457C150.158 20.4335 149.51 20.6411 148.979 21.036C148.448 21.4309 148.062 21.9909 147.883 22.6282H147.816V20.637Z" fill="#626981"/>
</svg>
